<svg width="1200" height="900" viewBox="0 0 1200 900" fill="none" xmlns="http://www.w3.org/2000/svg">
  <rect width="1200" height="900" rx="40" fill="#FFF8F5"/>
  <rect x="80" y="90" width="1040" height="720" rx="28" fill="#FFFFFF" stroke="#EBD7D0" stroke-width="2"/>
  <rect x="120" y="140" width="240" height="620" rx="20" fill="#FDF2EE"/>
  <rect x="150" y="190" width="180" height="16" rx="8" fill="#E9C3B8"/>
  <rect x="150" y="222" width="140" height="12" rx="6" fill="#F0D8D1"/>
  <rect x="150" y="270" width="180" height="110" rx="14" fill="#FFFFFF" stroke="#EFDCD5"/>
  <rect x="165" y="290" width="100" height="12" rx="6" fill="#E7684D"/>
  <rect x="165" y="314" width="140" height="10" rx="5" fill="#EBDAD4"/>
  <rect x="165" y="332" width="120" height="10" rx="5" fill="#EBDAD4"/>
  <rect x="150" y="400" width="180" height="110" rx="14" fill="#FFFFFF" stroke="#EFDCD5"/>
  <rect x="165" y="420" width="100" height="12" rx="6" fill="#1F1715"/>
  <rect x="165" y="444" width="140" height="10" rx="5" fill="#EBDAD4"/>
  <rect x="165" y="462" width="120" height="10" rx="5" fill="#EBDAD4"/>
  <rect x="150" y="530" width="180" height="110" rx="14" fill="#FFFFFF" stroke="#EFDCD5"/>
  <rect x="165" y="550" width="100" height="12" rx="6" fill="#D95A40"/>
  <rect x="165" y="574" width="140" height="10" rx="5" fill="#EBDAD4"/>
  <rect x="420" y="140" width="660" height="310" rx="22" fill="#FFFFFF" stroke="#EEDAD2"/>
  <rect x="450" y="180" width="240" height="18" rx="9" fill="#1F1715"/>
  <rect x="450" y="214" width="360" height="12" rx="6" fill="#E8D4CD"/>
  <rect x="450" y="236" width="300" height="12" rx="6" fill="#E8D4CD"/>
  <rect x="450" y="278" width="180" height="120" rx="16" fill="#FFF4F1" stroke="#EEDAD2"/>
  <rect x="474" y="302" width="132" height="12" rx="6" fill="#E7684D"/>
  <rect x="474" y="326" width="110" height="10" rx="5" fill="#E3CEC7"/>
  <rect x="474" y="345" width="126" height="10" rx="5" fill="#E3CEC7"/>
  <rect x="655" y="278" width="180" height="120" rx="16" fill="#FAF8F7" stroke="#EEDAD2"/>
  <rect x="679" y="302" width="132" height="12" rx="6" fill="#25211F"/>
  <rect x="679" y="326" width="110" height="10" rx="5" fill="#E3CEC7"/>
  <rect x="679" y="345" width="126" height="10" rx="5" fill="#E3CEC7"/>
  <rect x="860" y="278" width="180" height="120" rx="16" fill="#FFF4F1" stroke="#EEDAD2"/>
  <rect x="884" y="302" width="132" height="12" rx="6" fill="#E7684D"/>
  <rect x="884" y="326" width="110" height="10" rx="5" fill="#E3CEC7"/>
  <rect x="884" y="345" width="126" height="10" rx="5" fill="#E3CEC7"/>
  <rect x="420" y="480" width="310" height="280" rx="20" fill="#1F1715"/>
  <rect x="450" y="530" width="180" height="14" rx="7" fill="#FFFFFF"/>
  <rect x="450" y="558" width="210" height="10" rx="5" fill="#8A7068"/>
  <rect x="450" y="576" width="190" height="10" rx="5" fill="#8A7068"/>
  <circle cx="640" cy="654" r="42" fill="#EF6144"/>
  <rect x="770" y="480" width="310" height="280" rx="20" fill="#FFF3EE" stroke="#EED9D2"/>
  <rect x="800" y="530" width="170" height="14" rx="7" fill="#1F1715"/>
  <rect x="800" y="558" width="230" height="10" rx="5" fill="#E5CEC6"/>
  <rect x="800" y="576" width="190" height="10" rx="5" fill="#E5CEC6"/>
  <rect x="800" y="626" width="230" height="90" rx="14" fill="#FFFFFF" stroke="#EEDAD3"/>
  <rect x="824" y="652" width="120" height="12" rx="6" fill="#EF6144"/>
  <rect x="824" y="676" width="170" height="10" rx="5" fill="#E5CEC6"/>
</svg>