<svg width="1200" height="760" viewBox="0 0 1200 760" fill="none" xmlns="http://www.w3.org/2000/svg">
  <rect width="1200" height="760" rx="36" fill="#FFF9F6"/>
  <rect x="90" y="120" width="220" height="520" rx="22" fill="#FFFFFF" stroke="#E8D4CC"/>
  <rect x="350" y="120" width="220" height="520" rx="22" fill="#FFFFFF" stroke="#E8D4CC"/>
  <rect x="610" y="120" width="220" height="520" rx="22" fill="#FFFFFF" stroke="#E8D4CC"/>
  <rect x="870" y="120" width="220" height="520" rx="22" fill="#1F1715"/>
  <circle cx="200" cy="196" r="26" fill="#EF6144"/>
  <circle cx="460" cy="196" r="26" fill="#EF6144"/>
  <circle cx="720" cy="196" r="26" fill="#EF6144"/>
  <circle cx="980" cy="196" r="26" fill="#FFFFFF"/>
  <rect x="130" y="250" width="140" height="14" rx="7" fill="#1F1715"/>
  <rect x="130" y="278" width="160" height="10" rx="5" fill="#E0CAC2"/>
  <rect x="130" y="296" width="140" height="10" rx="5" fill="#E0CAC2"/>
  <rect x="390" y="250" width="140" height="14" rx="7" fill="#1F1715"/>
  <rect x="390" y="278" width="160" height="10" rx="5" fill="#E0CAC2"/>
  <rect x="390" y="296" width="140" height="10" rx="5" fill="#E0CAC2"/>
  <rect x="650" y="250" width="140" height="14" rx="7" fill="#1F1715"/>
  <rect x="650" y="278" width="160" height="10" rx="5" fill="#E0CAC2"/>
  <rect x="650" y="296" width="140" height="10" rx="5" fill="#E0CAC2"/>
  <rect x="910" y="250" width="140" height="14" rx="7" fill="#FFFFFF"/>
  <rect x="910" y="278" width="160" height="10" rx="5" fill="#896F69"/>
  <rect x="910" y="296" width="140" height="10" rx="5" fill="#896F69"/>
  <path d="M312 197H348" stroke="#E5BBB0" stroke-width="4" stroke-linecap="round"/>
  <path d="M572 197H608" stroke="#E5BBB0" stroke-width="4" stroke-linecap="round"/>
  <path d="M832 197H868" stroke="#E5BBB0" stroke-width="4" stroke-linecap="round"/>
</svg>